<svg xmlns="http://www.w3.org/2000/svg" version="1.1" xmlns:xlink="http://www.w3.org/1999/xlink" xmlns:svgjs="http://svgjs.dev/svgjs" width="1000" height="391" viewBox="0 0 1000 391"><g transform="matrix(1,0,0,1,-0.6060507167680385,0.40606400974141366)"><svg viewBox="0 0 396 155" data-background-color="#fffefe" preserveAspectRatio="xMidYMid meet" height="391" width="1000" xmlns="http://www.w3.org/2000/svg" xmlns:xlink="http://www.w3.org/1999/xlink"><g id="tight-bounds" transform="matrix(1,0,0,1,0.23999608384013982,-0.1609716662657803)"><svg viewBox="0 0 395.52 155.32194333253156" height="155.32194333253156" width="395.52"><g><svg viewBox="0 0 629.4831361379311 247.2" height="155.32194333253156" width="395.52"><g transform="matrix(1,0,0,1,282.40865337931035,0)"><svg viewBox="0 0 347.0744827586207 247.2" height="247.2" width="347.0744827586207"><g id="textblocktransform"><svg viewBox="0 0 347.0744827586207 247.2" height="247.2" width="347.0744827586207" id="textblock"><g><svg viewBox="0 0 347.0744827586207 247.2" height="247.2" width="347.0744827586207"><g transform="matrix(1,0,0,1,0,0)"><svg width="347.0744827586207" viewBox="0.9000000953674316 -40.5 124.79999542236328 84" height="247.2" data-palette-color="#6200ee"><svg></svg><svg></svg><g class="undefined-text-0" data-fill-palette-color="primary" id="text-0"><path xmlns="http://www.w3.org/2000/svg" d="M12.35 0h-3.8v-37.55h-7.65v-2.95h18.9v2.95h-7.45zM38.95 0h-14.75v-40.5h14.65v2.95h-10.8v15.2h8.8v2.8h-8.8v16.7h10.9zM45.65 0h-3.7l8.55-40.5h4l8.6 40.5h-3.75l-2-10.85h-9.65zM52.55-35.45l-4.3 21.85h8.6zM70.8 0h-3.15l1-40.5h3.8l8 35.15 8.15-35.15h3.8l1 40.5h-3.15l-0.8-32.25-7.75 32.25h-2.45l-7.65-32.2z" fill="#6200ee" fill-rule="nonzero" stroke="none" stroke-width="1" stroke-linecap="butt" stroke-linejoin="miter" stroke-miterlimit="10" stroke-dasharray="" stroke-dashoffset="0" font-family="none" font-weight="none" font-size="none" text-anchor="none" style="mix-blend-mode: normal" data-fill-palette-color="primary" opacity="1"></path><path xmlns="http://www.w3.org/2000/svg" d="M7.35 43.5h-3.8v-40.5h14.55v2.85h-10.75v15.25h8.95v2.8h-8.95zM26.75 43.5h-3.8v-40.5h3.8zM37.25 43.5h-3.3v-40.5h2.75l12.9 31.45v-31.45h3.3v40.5h-2.7l-12.95-31.8zM69.1 43.5h-9.15v-40.5h8.8c2.833 0 5.043 0.49 6.63 1.47 1.58 0.987 2.703 2.38 3.37 4.18 0.667 1.8 1 3.883 1 6.25v0 16.1c0 2.5-0.333 4.69-1 6.57-0.667 1.887-1.767 3.347-3.3 4.38-1.533 1.033-3.65 1.55-6.35 1.55zM63.75 5.95v34.7h5.1c2.133 0 3.7-0.44 4.7-1.32 1-0.887 1.633-2.107 1.9-3.66 0.267-1.547 0.4-3.303 0.4-5.27v0-15.1c0-2.033-0.173-3.743-0.52-5.13-0.353-1.38-1.037-2.43-2.05-3.15-1.02-0.713-2.547-1.07-4.58-1.07v0zM100.7 43.5h-14.75v-40.5h14.65v2.95h-10.8v15.2h8.8v2.8h-8.8v16.7h10.9zM109.7 43.5h-3.8v-40.5h9.15c2.533 0 4.527 0.407 5.98 1.22 1.447 0.82 2.487 2.003 3.12 3.55 0.633 1.553 0.95 3.397 0.95 5.53v0c0 1.5-0.167 2.917-0.5 4.25-0.333 1.333-0.9 2.467-1.7 3.4-0.8 0.933-1.933 1.55-3.4 1.85v0l6.2 20.7h-3.7l-5.95-19.9h-6.35zM109.7 5.85v14.95h5.15c1.7 0 3.017-0.283 3.95-0.85 0.933-0.567 1.6-1.4 2-2.5 0.4-1.1 0.6-2.483 0.6-4.15v0c0-2.5-0.433-4.367-1.3-5.6-0.867-1.233-2.583-1.85-5.15-1.85v0z" fill="#03dac6" fill-rule="nonzero" stroke="none" stroke-width="1" stroke-linecap="butt" stroke-linejoin="miter" stroke-miterlimit="10" stroke-dasharray="" stroke-dashoffset="0" font-family="none" font-weight="none" font-size="none" text-anchor="none" style="mix-blend-mode: normal" data-fill-palette-color="secondary" opacity="1"></path></g></svg></g></svg></g></svg></g></svg></g><g transform="matrix(1,0,0,1,0,16.35398482758619)"><svg viewBox="0 0 214.4920303448276 214.4920303448276" height="214.4920303448276" width="214.4920303448276"><g><svg viewBox="0 0 214.4920303448276 214.4920303448276" height="214.4920303448276" width="214.4920303448276"><g transform="matrix(1,0,0,1,58.02607124678222,56.68975878331435)"><svg viewBox="0 0 98.43988785126317 101.1125127781989" height="101.1125127781989" width="98.43988785126317"><g><svg xmlns="http://www.w3.org/2000/svg" xmlns:xlink="http://www.w3.org/1999/xlink" version="1.1" x="0" y="0" viewBox="-0.5890002250671387 3.5440006256103516 90.2770004272461 92.7280044555664" enable-background="new -3.456 0 96 99.818" xml:space="preserve" height="101.1125127781989" width="98.43988785126317" class="icon-s-0" data-fill-palette-color="accent" id="s-0"><g fill="#03dac6" data-fill-palette-color="accent"><circle fill="#03dac6" cx="18.557" cy="13.984" r="10" data-fill-palette-color="accent"></circle><circle fill="#03dac6" cx="44.277" cy="13.984" r="10" data-fill-palette-color="accent"></circle><circle fill="#03dac6" cx="69.867" cy="13.984" r="10" data-fill-palette-color="accent"></circle><path fill="#03dac6" d="M59.231 28.193h-29.77c-2.544 0-4.606 2.062-4.606 4.604v26.32c0 2.545 2.062 4.604 4.606 4.604h1.417v32.55h26.393v-32.55h1.96c2.544 0 4.604-2.06 4.604-4.604v-26.32C63.834 30.256 61.775 28.193 59.231 28.193z" data-fill-palette-color="accent"></path><g fill="#03dac6" data-fill-palette-color="accent"><path fill="#03dac6" d="M18.361 59.118v-26.32c0-1.646 0.383-3.196 1.028-4.604H4.015c-2.542 0-4.604 2.062-4.604 4.604v26.32c0 2.545 2.062 4.604 4.604 4.604h1.418v32.55h18.949V68.988C20.809 67.144 18.361 63.411 18.361 59.118z" data-fill-palette-color="accent"></path><path fill="#03dac6" d="M85.083 28.193H69.304c0.645 1.408 1.029 2.959 1.029 4.604v26.32c0 4.508-2.7 8.392-6.566 10.13v27.024h19.358v-32.55h1.957c2.543 0 4.606-2.06 4.606-4.604v-26.32C89.689 30.256 87.625 28.193 85.083 28.193z" data-fill-palette-color="accent"></path></g></g></svg></g></svg></g><g><path d="M20.079 148.328L19.244 145.179 50.344 136.931 48.662 130.591 51.101 129.944 55.254 145.601 52.815 146.248 51.179 140.08ZM31.434 173.936L25.488 162.781 56.109 146.461 62.013 157.538 59.786 158.725 55.43 150.552 43.941 156.676 47.491 163.337 45.372 164.467 41.822 157.805 29.195 164.535 33.592 172.786ZM39.02 182.834L36.818 180.555 66.861 161.711 69.24 164.174 49.411 193.586 47.178 191.276 52.672 183.586 46.924 177.638ZM64.971 165.98L48.951 176.344 54.066 181.636ZM60.249 200.56L57.877 199.29 75.011 169.105 77.882 170.643 69.703 200.427 90.075 177.171 92.947 178.709 77.323 209.702 74.941 208.427 87.389 183.741 68.482 204.968 66.64 203.982 73.882 176.559ZM105.23 214.492L101.986 214.378 103.21 179.701 115.665 180.141 115.579 182.574 106.368 182.249 105.907 195.315 113.573 195.585 113.489 197.974 105.823 197.704ZM126.487 213.116L123.264 213.587 118.253 179.252 121.477 178.782ZM140.17 208.76L137.544 209.798 124.79 177.529 126.982 176.663 147.165 197.664 137.26 172.601 139.886 171.563 152.639 203.832 150.489 204.682 130.154 183.418ZM168.883 191.731L162.839 196.721 140.747 169.965 146.56 165.166C148.429 163.623 150.153 162.742 151.732 162.525 153.316 162.313 154.821 162.617 156.249 163.438 157.67 164.263 159.028 165.459 160.321 167.025V167.025L169.105 177.664C170.469 179.316 171.443 180.943 172.027 182.547 172.61 184.161 172.678 185.728 172.233 187.25 171.783 188.765 170.666 190.259 168.883 191.731ZM144.857 169.844L163.785 192.768 167.163 189.98C168.569 188.819 169.363 187.673 169.545 186.543 169.72 185.417 169.475 184.27 168.807 183.1 168.14 181.931 167.268 180.695 166.192 179.392V179.392L157.96 169.421C156.851 168.078 155.804 167.044 154.821 166.318 153.831 165.597 152.806 165.275 151.746 165.353 150.68 165.436 149.475 166.031 148.132 167.14V167.14ZM189.916 166.469L182.809 176.923 154.114 157.415 161.171 147.035 163.258 148.454 158.052 156.112 168.818 163.432 173.062 157.189 175.048 158.539 170.804 164.782 182.637 172.826 187.894 165.094ZM194.893 153.851L193.853 156.926 160.983 145.811 163.494 138.386C164.19 136.329 165.066 134.826 166.122 133.876 167.181 132.92 168.429 132.399 169.866 132.314 171.297 132.226 172.875 132.474 174.602 133.059V133.059C175.824 133.472 176.93 133.994 177.922 134.627 178.91 135.266 179.674 136.037 180.214 136.94 180.752 137.849 180.943 138.939 180.787 140.208V140.208L199.288 140.854 198.269 143.867 180.482 143.227 178.737 148.388ZM164.33 143.516L176.462 147.618 177.876 143.437C178.344 142.054 178.478 140.906 178.278 139.993 178.071 139.078 177.576 138.309 176.794 137.684 176.011 137.06 174.943 136.518 173.587 136.06V136.06C171.558 135.374 169.927 135.213 168.692 135.578 167.451 135.941 166.477 137.165 165.772 139.25V139.25Z" fill="#03dac6" data-fill-palette-color="accent"></path><path d="M44.015 82.767L43.18 85.915 12.08 77.667 10.399 84.007 7.959 83.36 12.112 67.703 14.552 68.35 12.916 74.518ZM53.287 62.457L47.341 73.612 16.721 57.292 22.624 46.215 24.851 47.402 20.496 55.575 31.984 61.698 35.535 55.037 37.654 56.166 34.104 62.828 46.731 69.558 51.128 61.306ZM56.827 59.121L54.625 61.399 34.765 32.019 37.144 29.556 67.218 48.368 64.985 50.678 57.112 45.451 51.364 51.399ZM39.095 33.761L50.001 49.417 55.116 44.125ZM71.938 46.017L69.566 47.287 53.942 16.293 56.814 14.755 77.068 38.074 69.007 8.227 71.878 6.69 89.012 36.875 86.63 38.15 72.986 14.105 80.171 41.608 78.328 42.595 59.521 21.365ZM106.104 35.002L102.859 35.116 101.635 0.44 114.091 0 114.176 2.433 104.966 2.758 105.427 15.825 113.093 15.554 113.178 17.943 105.511 18.213ZM122.911 36.133L119.688 35.663 124.699 1.328 127.922 1.799ZM131.068 39.015L128.442 37.977 141.195 5.708 143.387 6.574 143.76 35.699 153.665 10.636 156.291 11.674 143.538 43.943 141.387 43.093 141.084 13.673ZM153.117 52.11L147.073 47.12 169.165 20.363 174.978 25.163C176.847 26.706 178.037 28.232 178.55 29.742 179.058 31.257 179.044 32.793 178.508 34.35 177.967 35.902 177.05 37.461 175.757 39.027V39.027L166.972 49.666C165.608 51.318 164.194 52.582 162.73 53.459 161.256 54.337 159.729 54.701 158.152 54.551 156.578 54.396 154.9 53.583 153.117 52.11ZM170.062 24.376L151.134 47.301 154.511 50.09C155.917 51.251 157.192 51.813 158.337 51.778 159.475 51.737 160.556 51.279 161.578 50.402 162.599 49.525 163.648 48.435 164.724 47.132V47.132L172.957 37.162C174.066 35.819 174.883 34.596 175.41 33.492 175.93 32.385 176.052 31.317 175.775 30.291 175.493 29.26 174.68 28.189 173.336 27.081V27.081ZM169.438 72.199L162.331 61.745 191.026 42.237 198.083 52.617 195.996 54.036 190.789 46.378 180.023 53.697 184.267 59.94 182.281 61.29 178.037 55.047 166.204 63.092 171.46 70.824ZM171.435 78.828L170.395 75.753 203.265 64.638 205.776 72.063C206.471 74.12 206.688 75.846 206.424 77.242 206.163 78.645 205.487 79.816 204.397 80.756 203.313 81.693 201.908 82.454 200.181 83.038V83.038C198.959 83.451 197.762 83.707 196.591 83.806 195.417 83.898 194.342 83.749 193.365 83.36 192.386 82.963 191.573 82.213 190.926 81.11V81.11L175.83 91.824 174.811 88.812 189.336 78.525 187.591 73.365ZM201.998 68.493L189.866 72.596 191.28 76.777C191.747 78.16 192.338 79.153 193.05 79.757 193.77 80.359 194.631 80.671 195.632 80.692 196.632 80.713 197.81 80.495 199.166 80.037V80.037C201.195 79.351 202.589 78.488 203.349 77.449 204.115 76.407 204.146 74.844 203.441 72.758V72.758Z" fill="#03dac6" data-fill-palette-color="accent"></path><path d="M15.705 112.373C15.705 105.052 21.64 99.117 28.961 99.117 36.282 99.117 42.217 105.052 42.217 112.373 42.217 119.694 36.282 125.629 28.961 125.629 21.64 125.629 15.705 119.694 15.705 112.373ZM175.869 112.373C175.869 105.052 181.804 99.117 189.125 99.117 196.447 99.117 202.382 105.052 202.382 112.373 202.382 119.694 196.447 125.629 189.125 125.629 181.804 125.629 175.869 119.694 175.869 112.373Z" fill="#03dac6" data-fill-palette-color="accent"></path></g></svg></g></svg></g></svg></g><defs></defs></svg><rect width="395.52" height="155.32194333253156" fill="none" stroke="none" visibility="hidden"></rect></g></svg></g></svg>